#!OML:ASF E:/inclinewalkrobotboard/Project1/Captureday1/Session1/subject1.ASF
:FULLY-SPECIFIED
:DEGREES
376
root 0 0 0 -1.1669189483950202 -2.8501690425029724 -0.8777475168083628
lowerback 10.948463618831314 0.5636493743247073 0.4775042078018035
upperback -1.113753168572201 0.8813980658896154 0.9133301896617595
thorax -7.288917358086986 0.40546357495587737 0.44701373417906465
lowerneck -13.41210976773374 -1.4110772221804355 0.2128229366836058
upperneck 19.050970011286072 -1.4062682974292908 -2.3416943296995703
head 8.213132632213139 -0.8108303771392944 -1.0020959307075643
rclavicle -4.628882323512797E-16 -2.4392848014322473E-16
rhumerus -11.538841320808482 -6.605450005744348 -67.13672385738401
rradius 43.164207729564694
rwrist 12.119876796989864
rhand -23.679351028351174 -5.901408174631584
rfingers 7.1250200000001325
rthumb 3.024114807868239 -36.04247570393211
lclavicle -9.871980948501706E-16 -7.923685375395113E-16
lhumerus -12.675804150552832 -4.036857425498135 68.89595647641495
lradius 43.44876249750384
lwrist -4.93426124689469
lhand -33.222002184057835 -10.253751117631499
lfingers 7.125020000000131
lthumb -6.518976045617668 18.823898522196156
rfemur 9.779734262380618 6.137877393927942 35.18654659261856
rtibia 46.15466237610178
rfoot -8.701051329480848 -0.6227102165665901
rtoes 9.746231953843129
lfemur -13.81500692823123 -5.262407423553437 -19.700295409497954
ltibia 9.586298783259842
lfoot -13.393258723073783 6.17951904894019
ltoes 0.6877998648267898
377
root 0 0 0 -1.1746046095601064 -2.8474148922380187 -0.8861640194163407
lowerback 10.945297060424654 0.5625268265401907 0.47978430644392406
upperback -1.1030033384849314 0.8808774374745353 0.9180065640245139
thorax -7.275398460319552 0.4049736422411298 0.451257047112113
lowerneck -13.434499041831774 -1.4208406542221028 0.1992328293945868
upperneck 19.051281016350064 -1.4218453092596595 -2.323071782829537
head 8.217124781857192 -0.8172736197456121 -0.9950106286684974
rclavicle -4.644647836274289E-16 -2.2998816346110942E-16
rhumerus -11.787659480414506 -6.7723924713998205 -67.28946378091392
rradius 42.92790459964289
rwrist 12.002215332703233
rhand -23.595682692525223 -5.493740297070828
rfingers 7.125020000000133
rthumb 3.108767229009226 -35.64216180140567
lclavicle -9.9035427471756E-16 -7.925033248869327E-16
lhumerus -12.818029472760212 -4.003499751644638 68.9986131267457
lradius 43.3331736342305
lwrist -4.85252034990544
lhand -33.1728131786017 -9.985400261049861
lfingers 7.125020000000132
lthumb -6.471736845280936 19.090692257479972
rfemur 7.322823793114495 5.411453127643007 33.92259317890665
rtibia 49.730046085889924
rfoot -6.734158216744426 -0.6665375478122293
rtoes 10.230621382576754
lfemur -8.390284742323908 -5.503964863386793 -22.09018655064796
ltibia 7.587500267076631
lfoot -14.679002001311611 5.523540796654794
ltoes 0.2103158220918111
378
root 0 0 0 -1.1799689194814185 -2.845379522173485 -0.8921012008401246
lowerback 10.94305032263092 0.5616889172947446 0.48125891213588096
upperback -1.0953668968084624 0.880538973332016 0.9213100217318023
thorax -7.265829546666827 0.4046134338869278 0.4543255821435327
lowerneck -13.450128178652266 -1.4277200958731506 0.18960784215337806
upperneck 19.051375814197154 -1.4329407097294165 -2.3100623722049556
head 8.21990905586301 -0.8218336880976724 -0.9900104582260143
rclavicle -4.653942957096242E-16 -2.1856793525655176E-16
rhumerus -11.980047894805754 -6.901236432716776 -67.40738012891048
rradius 42.745698480391766
rwrist 11.911503914889977
rhand -23.531148145771386 -5.1781532828861145
rfingers 7.125020000000134
rthumb 3.1743152582000738 -35.33322960761208
lclavicle -9.934952714600708E-16 -7.926192227360084E-16
lhumerus -12.907307761606464 -3.9826138094490906 69.06345625425116
lradius 43.260030169622766
lwrist -4.800335769421034
lhand -33.14161395692411 -9.81384060217979
lfingers 7.1250200000001325
lthumb -6.441722283343056 19.2577191474821
rfemur 3.919911278025662 4.475253521824307 32.20251098652857
rtibia 54.160984639265465
rfoot -4.2476535477545365 -0.8044563605213462
rtoes 10.73866573040425
lfemur -3.432900538971065 -5.620534379566935 -24.172252525103396
ltibia 6.597789356318142
lfoot -15.447043977619714 4.589142395420312
ltoes -0.2721589383534031
379
root 0 0 0 -1.1822649723682717 -2.844296220422584 -0.8947482072300779
lowerback 10.942007908428762 0.5612235968918217 0.48159394753761353
upperback -1.0918312500670893 0.8803983078779157 0.9228185528715611
thorax -7.261480804021944 0.4044301137249813 0.4558319728078469
lowerneck -13.456875461034427 -1.4307774766100374 0.18522896602866346
upperneck 19.051238329975057 -1.4380970695097637 -2.304504718991393
head 8.221121252066148 -0.8238872794006431 -0.9877901056519893
rclavicle -4.654291293080123E-16 -2.106131615200977E-16
rhumerus -12.099132610002831 -6.980806660237377 -67.47998792087574
rradius 42.63401293398648
rwrist 11.855793759425705
rhand -23.491502670031405 -4.983047058430051
rfingers 7.125020000000135
rthumb 3.2148144820631206 -35.14339245460024
lclavicle -9.952185526614884E-16 -7.929481321541171E-16
lhumerus -12.925780937361584 -3.9784555062339084 69.07754289851243
lradius 43.24391766841613
lwrist -4.788074773267648
lhand -33.13457564912663 -9.773041698003508
lfingers 7.1250200000001325
lthumb -6.434935660074391 19.292172701956964
rfemur -0.4987224233585543 3.347192736632606 30.022282476086463
rtibia 59.22499314005226
rfoot -1.3886169157281092 -1.0876105513964722
rtoes 11.162633129930427
lfemur 0.8328899958969043 -5.621761006830802 -25.888929235114677
ltibia 6.497339802060804
lfoot -15.787657937797444 3.4971929789995313
ltoes -0.7345212536701542
380
root 0 0 0 -1.1809794992773017 -2.844276329410528 -0.893566995803442
lowerback 10.942351526613018 0.561174069089844 0.4805835960566548
upperback -1.09299299874948 0.8804479274899847 0.9222662845332505
thorax -7.263188289488245 0.4044494357106191 0.455540925827001
lowerneck -13.453392212252394 -1.429413527925325 0.18696674150500942
upperneck 19.05084253032883 -1.4364274836215674 -2.3075947358325886
head 8.2205281659146 -0.8230473323599551 -0.9888025470391981
rclavicle -4.645499137498023E-16 -2.0679556339486033E-16
rhumerus -12.136708529757751 -7.005928619563912 -67.50222655151035
rradius 42.60055962222895
rwrist 11.838936272573676
rhand -23.479482923910417 -4.922614786872303
rfingers 7.125020000000135
rthumb 3.2272866498616057 -35.08594279212332
lclavicle -9.941245205993724E-16 -7.940515074564759E-16
lhumerus -12.858243721715352 -3.9947542516114702 69.02997899169321
lradius 43.297209846533214
lwrist -4.824373147294905
lhand -33.15693579260071 -9.89156620554828
lfingers 7.125020000000132
lthumb -6.4565345359527555 19.167480295941786
rfemur -5.73103828361473 2.152552467004596 27.54068407720305
rtibia 64.1270416885886
rfoot 1.4299999093784415 -1.5721222584270764
rtoes 11.329552663109643
lfemur 4.336314023071944 -5.529497745569074 -27.249684637894305
ltibia 7.063612102125148
lfoot -15.845195132612673 2.3674972805402
ltoes -1.1770641833098328
381
root 0 0 0 -1.17612838859324 -2.845242493104194 -0.8886136160039517
lowerback 10.94405633541025 0.5615193672783653 0.47828848331614077
upperback -1.0987211860985804 0.8806525185522608 0.9196900446341119
thorax -7.270876920932745 0.40466395818533263 0.4535028381928523
lowerneck -13.439873165073697 -1.4237237924546868 0.1947607234469782
upperneck 19.050163878035416 -1.4281282986847952 -2.3191732022137903
head 8.21816209485443 -0.8193951645288304 -0.9929917477151279
rclavicle -4.628067232360755E-16 -2.0736130283058064E-16
rhumerus -12.095695161225876 -6.978990937469387 -67.47599799866684
rradius 42.642009706130985
rwrist 11.859419260051663
rhand -23.493970278931652 -4.992501368499697
rfingers 7.125020000000135
rthumb 3.2126219313127633 -35.15593346875219
lclavicle -9.89583342761742E-16 -7.965242281815559E-16
lhumerus -12.697130881019365 -4.033494692559854 68.91549785364457
lradius 43.425937813667844
lwrist -4.9132442849756535
lhand -33.21130178541447 -10.183154067056883
lfingers 7.125020000000132
lthumb -6.509113649632797 18.8720545477891
rfemur -11.245303435555323 1.1136534030789302 25.076316611894704
rtibia 67.66268529701242
rfoot 3.6650857413768207 -2.2796098590731857
rtoes 11.09127049532916
lfemur 7.1366247028469 -5.367898179207947 -28.300312413196167
ltibia 8.091482632487711
lfoot -15.735019836546464 1.2697913760286061
ltoes -1.61764249261046
382
root 0 0 0 -1.168657928843595 -2.8468654175170727 -0.880936824674341
lowerback 10.946752397849393 0.5621479131543975 0.4751442286827798
upperback -1.1077274133307635 0.8809427786813268 0.9156335861711052
thorax -7.282933581702563 0.4050135023756545 0.45021591665311333
lowerneck -13.41905621294061 -1.4149328415113205 0.20696328854129759
upperneck 19.049217502556424 -1.4151136452421065 -2.3368586523751755
head 8.214491730073838 -0.8137489690264167 -0.9994744478193869
rclavicle -4.604553273403824E-16 -2.1177135481071987E-16
rhumerus -11.993798284842683 -6.912054077185981 -67.41232377292603
rradius 42.74089209688362
rwrist 11.908672423293693
rhand -23.52882188890744 -5.163272662216765
rfingers 7.125020000000134
rthumb 3.1769687948550547 -35.32447679073495
lclavicle -9.822563659893868E-16 -8.004261834087906E-16
lhumerus -12.453232321959899 -4.09228618831691 68.7419360642396
lradius 43.62134849253868
lwrist -5.048183543803099
lhand -33.29407052507739 -10.627607009522322
lfingers 7.12502000000013
lthumb -6.5891068862458395 18.42722253562048
rfemur -16.451806238385895 0.40253867599624416 22.90993659921108
rtibia 69.06340906939835
rfoot 5.00427382357622 -3.1712460167890812
rtoes 10.423910365070308
lfemur 9.380164928801362 -5.158327667068848 -29.100652850009148
ltibia 9.443982969629921
lfoot -15.511665031525995 0.21253325902579023
ltoes -2.087177143365963
383
root 0 0 0 -1.1600864472973953 -2.848724660657361 -0.8721599984237687
lowerback 10.949860128451633 0.5628936729324033 0.4717316807694914
upperback -1.118067025137332 0.8812436038370773 0.910954224227729
thorax -7.296804467456754 0.4054072244921168 0.44642192432931915
lowerneck -13.395203703500561 -1.4049034384668702 0.2209978639392422
upperneck 19.048068538024253 -1.4002473203008727 -2.356996213215946
head 8.210250293030166 -0.8073232940869025 -1.0068891901500878
rclavicle -4.58056067018708E-16 -2.1894293801698426E-16
rhumerus -11.85607006756128 -6.821572064875751 -67.32662489539238
rradius 42.873146392737
rwrist 11.974752269538543
rhand -23.575487442920004 -5.392785705087694
rfingers 7.125020000000134
rthumb 3.129177670700839 -35.55074838644901
lclavicle -9.737148982654468E-16 -8.051879253302856E-16
lhumerus -12.154478472832306 -4.1645307663288635 68.52924949427198
lradius 43.860933412586135
lwrist -5.21312763526882
lhand -33.39583025685384 -11.17355178244655
lfingers 7.125020000000129
lthumb -6.6871962467196315 17.88354237868553
rfemur -21.00075850957311 0.03766981815328929 21.14336363750389
rtibia 68.47476082038561
rfoot 5.515764496719655 -4.161533037500054
rtoes 9.437338961661014
lfemur 11.25386762594164 -4.91681190117947 -29.713305275434486
ltibia 11.05121129918377
lfoot -15.178917636820398 -0.8402128670065241
ltoes -2.619984850976766
